<?xml version="1.0" encoding="utf-8"?>
<!-- Generator: Adobe Illustrator 20.1.0, SVG Export Plug-In . SVG Version: 6.00 Build 0)  -->
<svg version="1.1" id="Layer_1" xmlns="http://www.w3.org/2000/svg" xmlns:xlink="http://www.w3.org/1999/xlink" x="0px" y="0px"
	 viewBox="0 0 900 900" style="enable-background:new 0 0 900 900;" xml:space="preserve">
<style type="text/css">
	.st0{fill:#9A2D21;}
	.st1{fill:#113D64;}
</style>
<g>
	<path class="st0" d="M336.5,480.8l122.6-137.2c-29.2,23-58.6,46-88.2,69.2L336.5,480.8z"/>
	<path class="st0" d="M302.2,903.2l302.9-676.1c-31.6,25.7-63.4,50.9-95.5,76.3L302.2,903.2z"/>
</g>
<path d="M370.9,412.9c-7.8,6.3-15.5,12.7-23.1,19l-49.5,97.9l194-209.9L303,901.8l206.6-598.3c-16.7,13.7-33.6,27.1-50.7,40.5
	L337.4,480L370.9,412.9z"/>
<path d="M556.5,224.7l-87.7,103.2c18.1-14,53.4-42.2,71.6-56.8L556.5,224.7z"/>
<path d="M539.5,105.9l6.3-37.7L378.5,399.5c7.7-6.5,15.5-12.3,23.1-19L539.5,105.9z"/>
<path class="st1" d="M176.9,694.2l259.8-289.8L294.2,930.6l199.3-612.4L299.7,528l48.2-96.1c-19.9,15.9-33.8,26.2-52.1,41
	L176.9,694.2z"/>
<path class="st1" d="M555.2,15.4L327.5,439.8c18.7-14.2,34.9-27,52.8-41.7L547.6,67L555.2,15.4z"/>
<path class="st0" d="M531,225.1l8.5-119.2L399.7,382.2c29.6-23.2,60.3-47.4,89.5-70.3l57.5-64.7l-9.1,26.2
	c32-25.4,63.2-50.2,95.1-75.9l42.3-94.7L531,225.1z"/>
</svg>
